<?xml version="1.0" encoding="UTF-8"?>
<svg xmlns="http://www.w3.org/2000/svg" xmlns:xlink="http://www.w3.org/1999/xlink" width="20px" height="20px" viewBox="0 0 20 20" version="1.1">
<g id="surface1">
<path style="fill-rule:nonzero;fill:rgb(100%,100%,100%);fill-opacity:1;stroke-width:1;stroke-linecap:butt;stroke-linejoin:miter;stroke:rgb(100%,100%,100%);stroke-opacity:1;stroke-miterlimit:4;" d="M 235.1 392.7 C 229.3 392.7 224.6 397.4 224.6 403.2 L 224.6 407.9 C 224.6 413.6 229.3 418.3 235.1 418.3 C 240.9 418.3 245.5 413.6 245.5 407.9 L 245.5 403.2 C 245.5 397.4 240.9 392.7 235.1 392.7 Z M 235.1 392.7 " transform="matrix(0.0390625,0,0,0.0390625,0,0)"/>
<path style="fill-rule:nonzero;fill:rgb(100%,100%,100%);fill-opacity:1;stroke-width:1;stroke-linecap:butt;stroke-linejoin:miter;stroke:rgb(100%,100%,100%);stroke-opacity:1;stroke-miterlimit:4;" d="M 492.9 313.4 L 461.6 287.5 C 463.1 277.1 463.9 266.5 463.9 256 C 463.9 245.5 463.1 234.9 461.6 224.5 L 492.9 198.6 C 503 190.4 505.5 176.2 499 165 L 456.4 91 C 451.6 82.9 442.9 77.8 433.4 77.8 C 430.3 77.8 427.1 78.4 424.1 79.5 L 386 93.7 C 369.5 80.5 351.2 69.9 331.5 62.2 L 324.8 22.1 C 322.7 9.3 311.7 0 298.7 0 L 213.3 0 C 200.3 0 189.3 9.3 187.2 22.1 L 180.5 62.2 C 160.8 69.9 142.5 80.5 126 93.7 L 87.9 79.5 C 84.9 78.4 81.8 77.8 78.6 77.8 C 69.1 77.8 60.4 82.9 55.7 91 L 13 165 C 6.5 176.2 9 190.4 19.1 198.6 L 50.4 224.5 C 48.9 234.9 48.1 245.5 48.1 256 C 48.1 266.5 48.9 277.1 50.4 287.5 L 19.1 313.4 C 9 321.6 6.5 335.8 13 347 L 55.7 421 C 60.4 429.2 69.1 434.2 78.6 434.2 C 81.8 434.2 84.9 433.6 87.9 432.5 L 126 418.3 C 142.5 431.5 160.8 442.1 180.5 449.8 L 187.2 489.9 C 189.3 502.7 200.3 512 213.3 512 L 298.7 512 C 311.7 512 322.7 502.7 324.8 489.9 L 331.5 449.8 C 351.2 442.1 369.5 431.5 386 418.3 L 424.1 432.5 C 427.1 433.6 430.2 434.2 433.4 434.2 C 442.9 434.2 451.6 429.2 456.3 421 L 499 347 C 505.5 335.8 503 321.6 492.9 313.4 Z M 298.7 491.1 L 245.5 491.1 L 245.5 441.7 C 245.5 435.9 240.9 431.2 235.1 431.2 C 229.3 431.2 224.6 435.9 224.6 441.7 L 224.6 491.1 L 213.7 491.1 L 213.7 376.5 C 227.3 381.3 241.8 383.9 256.6 383.9 C 271.5 383.9 286 381.4 299.6 376.5 L 299.6 491 C 299.3 491.1 299 491.1 298.7 491.1 Z M 256.6 363 C 197.6 363 149.7 315 149.7 256 C 149.7 221.7 165.8 190.2 192.8 170.3 L 192.8 246.5 C 192.8 250.2 194.7 253.6 197.9 255.4 L 251.3 287.5 C 254.6 289.5 258.7 289.5 262 287.5 L 315.4 255.4 C 318.5 253.6 320.5 250.2 320.5 246.5 L 320.5 170.3 C 347.5 190.2 363.6 221.7 363.6 256 C 363.6 284.5 352.5 311.4 332.3 331.6 C 312 351.8 285.2 363 256.6 363 Z M 480.9 336.6 L 438.2 410.5 C 436.9 412.8 434.1 414 431.5 413 L 387.7 396.6 C 384.1 395.2 380.1 395.9 377.3 398.4 C 360.3 412.8 341.2 424 320.5 431.6 L 320.5 366.8 C 330.1 361.3 339 354.4 347 346.4 C 371.2 322.2 384.5 290.1 384.5 256 C 384.5 207.8 357.8 164.2 314.8 142.2 C 311.5 140.6 307.7 140.7 304.6 142.6 C 301.5 144.5 299.6 147.9 299.6 151.6 L 299.6 240.6 L 256.6 266.3 L 213.7 240.6 L 213.7 151.6 C 213.7 147.9 211.8 144.5 208.7 142.6 C 205.6 140.7 201.8 140.6 198.5 142.2 C 155.5 164.2 128.8 207.8 128.8 256 C 128.8 290.7 142.3 323.2 167 347.3 C 174.9 354.9 183.5 361.5 192.8 366.8 L 192.8 432.1 C 171.6 424.4 152 413.1 134.7 398.4 C 132.8 396.8 130.4 395.9 128 395.9 C 126.7 395.9 125.5 396.1 124.3 396.6 L 80.5 413 C 79.9 413.2 79.2 413.3 78.6 413.3 C 76.6 413.3 74.8 412.3 73.8 410.5 L 31.1 336.6 C 29.7 334.2 30.2 331.2 32.3 329.5 L 68.4 299.8 C 71.3 297.4 72.7 293.6 72 289.9 C 70 278.7 69 267.3 69 256 C 69 244.7 70 233.3 72 222.1 C 72.7 218.4 71.3 214.6 68.4 212.2 L 32.3 182.5 C 30.2 180.8 29.7 177.8 31.1 175.4 L 73.8 101.5 C 75.1 99.2 77.9 98 80.5 99 L 124.3 115.4 C 127.9 116.8 131.9 116.1 134.7 113.6 C 152.2 98.8 171.9 87.4 193.3 79.7 C 196.9 78.5 199.5 75.4 200.1 71.6 L 207.8 25.5 C 208.3 22.9 210.6 20.9 213.3 20.9 L 298.7 20.9 C 301.4 20.9 303.7 22.9 304.2 25.6 L 311.9 71.6 C 312.5 75.4 315.1 78.5 318.7 79.7 C 340.1 87.4 359.8 98.8 377.3 113.6 C 380.2 116.1 384.1 116.8 387.7 115.4 L 431.5 99 C 432.1 98.8 432.8 98.7 433.4 98.7 C 435.4 98.7 437.3 99.7 438.2 101.5 L 481 175.4 C 482.3 177.8 481.8 180.8 479.7 182.5 L 443.6 212.2 C 440.7 214.6 439.3 218.4 440 222.1 C 442 233.3 443 244.7 443 256 C 443 267.3 442 278.7 440 289.9 C 439.3 293.6 440.7 297.4 443.6 299.8 L 479.7 329.5 C 481.8 331.2 482.3 334.2 480.9 336.6 Z M 480.9 336.6 " transform="matrix(0.0390625,0,0,0.0390625,0,0)"/>
</g>
</svg>
