<svg xmlns:dc="http://purl.org/dc/elements/1.1/" xmlns:cc="http://creativecommons.org/ns#" xmlns:rdf="http://www.w3.org/1999/02/22-rdf-syntax-ns#" xmlns:svg="http://www.w3.org/2000/svg" xmlns="http://www.w3.org/2000/svg" xmlns:sodipodi="http://sodipodi.sourceforge.net/DTD/sodipodi-0.dtd" xmlns:inkscape="http://www.inkscape.org/namespaces/inkscape" version="1.1" x="0px" y="0px" viewBox="0 0 100 125"><g transform="translate(0,-952.36218)"><path style="text-indent:0;text-transform:none;direction:ltr;block-progression:tb;baseline-shift:baseline;color:#000000;enable-background:accumulate;" d="m 13.093801,959.36217 c -3.3606005,0 -6.0938005,2.75983 -6.0938005,6.125 l 0,25.9375 c 0,3.36518 2.7332,6.125 6.0938005,6.125 l 25.874999,0 c 3.360699,0 6.125,-2.75986 6.125,-6.125 l 0,-25.9375 c 0,-3.36513 -2.764301,-6.125 -6.125,-6.125 l -25.874999,0 z m 0,2 25.874999,0 c 2.265,0 4.125,1.84994 4.125,4.125 l 0,25.9375 c 0,2.27507 -1.86,4.125 -4.125,4.125 l -25.874999,0 c -2.265,0 -4.0938005,-1.84992 -4.0938005,-4.125 l 0,-25.9375 c 0,-2.27507 1.8288005,-4.125 4.0938005,-4.125 z" fill="#000000" fill-opacity="1" fill-rule="nonzero" stroke="none" marker="none" visibility="visible" display="inline" overflow="visible"/><path style="text-indent:0;text-transform:none;direction:ltr;block-progression:tb;baseline-shift:baseline;color:#000000;enable-background:accumulate;" d="m 61,959.36217 c -3.3544,0 -6.125,2.75553 -6.125,6.125 l 0,25.9375 c 0,3.36947 2.7706,6.125 6.125,6.125 l 25.875,0 c 3.3536,0 6.125,-2.75924 6.125,-6.125 l 0,-25.9375 c 0,-3.36574 -2.7714,-6.125 -6.125,-6.125 l -25.875,0 z m 0,2 25.875,0 c 2.2554,0 4.125,1.84837 4.125,4.125 l 0,25.9375 c 0,2.27664 -1.8696,4.125 -4.125,4.125 l -25.875,0 c -2.2572,0 -4.125,-1.84791 -4.125,-4.125 l 0,-25.9375 c 0,-2.27708 1.8678,-4.125 4.125,-4.125 z" fill="#000000" fill-opacity="1" fill-rule="nonzero" stroke="none" marker="none" visibility="visible" display="inline" overflow="visible"/><path style="text-indent:0;text-transform:none;direction:ltr;block-progression:tb;baseline-shift:baseline;color:#000000;enable-background:accumulate;" d="m 13.093801,1007.1434 c -3.3651005,0 -6.0938005,2.7661 -6.0938005,6.125 l 0,25.9375 c 0,3.359 2.7287,6.1563 6.0938005,6.1563 l 25.874999,0 c 3.365099,0 6.125,-2.7973 6.125,-6.1563 l 0,-25.9375 c 0,-3.3589 -2.759901,-6.125 -6.125,-6.125 l -25.874999,0 z m 0,2 25.874999,0 c 2.2671,0 4.125,1.8578 4.125,4.125 l 0,25.9375 c 0,2.2673 -1.8579,4.1563 -4.125,4.1563 l -25.874999,0 c -2.2671,0 -4.0938005,-1.889 -4.0938005,-4.1563 l 0,-25.9375 c 0,-2.2673 1.8268005,-4.125 4.0938005,-4.125 z" fill="#000000" fill-opacity="1" fill-rule="nonzero" stroke="none" marker="none" visibility="visible" display="inline" overflow="visible"/><path style="text-indent:0;text-transform:none;direction:ltr;block-progression:tb;baseline-shift:baseline;color:#000000;enable-background:accumulate;" d="m 61,1007.1434 c -3.358901,0 -6.125,2.7618 -6.125,6.125 l 0,25.9375 c 0,3.3633 2.766099,6.1563 6.125,6.1563 l 25.875,0 c 3.3581,0 6.125,-2.7967 6.125,-6.1563 l 0,-25.9375 c 0,-3.3595 -2.7669,-6.125 -6.125,-6.125 l -25.875,0 z m 0,2 25.875,0 c 2.257499,0 4.125,1.8562 4.125,4.125 l 0,25.9375 c 0,2.2689 -1.867501,4.1563 -4.125,4.1563 l -25.875,0 c -2.2594,0 -4.125,-1.8869 -4.125,-4.1563 l 0,-25.9375 c 0,-2.2693 1.8656,-4.125 4.125,-4.125 z" fill="#000000" fill-opacity="1" fill-rule="nonzero" stroke="none" marker="none" visibility="visible" display="inline" overflow="visible"/></g><text x="0" y="115" fill="#000000" font-size="5px" font-weight="bold" font-family="'Helvetica Neue', Helvetica, Arial-Unicode, Arial, Sans-serif">Created by andriwidodo</text><text x="0" y="120" fill="#000000" font-size="5px" font-weight="bold" font-family="'Helvetica Neue', Helvetica, Arial-Unicode, Arial, Sans-serif">from the Noun Project</text></svg>