<!DOCTYPE svg PUBLIC "-//W3C//DTD SVG 1.1//EN" "http://www.w3.org/Graphics/SVG/1.1/DTD/svg11.dtd">
<!-- Uploaded to: SVG Repo, www.svgrepo.com, Transformed by: SVG Repo Mixer Tools -->

<svg style="color: white" xmlns="http://www.w3.org/2000/svg" width="20" height="20" fill="currentColor" class="bi bi-cash" viewBox="0 0 16 16"> <path d="M8 10a2 2 0 1 0 0-4 2 2 0 0 0 0 4z" fill="white"></path> <path d="M0 4a1 1 0 0 1 1-1h14a1 1 0 0 1 1 1v8a1 1 0 0 1-1 1H1a1 1 0 0 1-1-1V4zm3 0a2 2 0 0 1-2 2v4a2 2 0 0 1 2 2h10a2 2 0 0 1 2-2V6a2 2 0 0 1-2-2H3z" fill="white"></path> </svg>
