<?xml version="1.0" encoding="UTF-8"?>
<svg xmlns="http://www.w3.org/2000/svg" xmlns:xlink="http://www.w3.org/1999/xlink" width="20px" height="20px" viewBox="0 0 20 20" version="1.1">
<g id="surface1">
<path style=" stroke:none;fill-rule:nonzero;fill:rgb(0%,0%,0%);fill-opacity:1;" d="M 15 2.070312 L 15 3.59375 C 16.898438 5.078125 18.125 7.398438 18.125 10 C 18.125 14.484375 14.484375 18.125 10 18.125 C 5.515625 18.125 1.875 14.484375 1.875 10 C 1.875 7.398438 3.101562 5.085938 5 3.59375 L 5 2.070312 C 2.375 3.726562 0.625 6.664062 0.625 10 C 0.625 15.179688 4.820312 19.375 10 19.375 C 15.179688 19.375 19.375 15.179688 19.375 10 C 19.375 6.664062 17.625 3.726562 15 2.070312 Z M 15 2.070312 "/>
<path style=" stroke:none;fill-rule:nonzero;fill:rgb(0%,0%,0%);fill-opacity:1;" d="M 10 0.625 C 9.65625 0.625 9.375 0.90625 9.375 1.25 L 9.375 10 C 9.375 10.34375 9.65625 10.625 10 10.625 C 10.34375 10.625 10.625 10.34375 10.625 10 L 10.625 1.25 C 10.625 0.90625 10.34375 0.625 10 0.625 Z M 10 0.625 "/>
</g>
</svg>
