<?xml version="1.0" encoding="UTF-8"?>
<svg xmlns="http://www.w3.org/2000/svg" xmlns:xlink="http://www.w3.org/1999/xlink" width="20px" height="20px" viewBox="0 0 20 20" version="1.1">
<g id="surface1">
<path style="fill-rule:nonzero;fill:rgb(100%,100%,100%);fill-opacity:1;stroke-width:1;stroke-linecap:butt;stroke-linejoin:miter;stroke:rgb(100%,100%,100%);stroke-opacity:1;stroke-miterlimit:4;" d="M 325.636584 189.227285 L 269.56924 53.964818 C 268.804686 52.117145 267.403002 50.651748 265.555328 49.887193 C 263.707654 49.122639 261.605129 49.122639 259.821168 49.887193 L 73.206111 127.17093 C 71.358438 127.935484 69.893041 129.400881 69.128486 131.248555 C 68.363932 133.096229 68.363932 135.135041 69.128486 136.982715 L 125.19583 272.245182 C 126.342662 275.175975 129.146029 276.896223 132.076822 276.896223 C 133.032516 276.896223 134.051922 276.705084 134.943902 276.322807 L 321.558959 199.03907 C 325.381732 197.446248 327.229406 193.050059 325.636584 189.227285 Z M 208.659717 190.374117 L 94.613643 134.561625 L 249.881957 70.211605 Z M 209.742836 207.576598 C 210.762242 208.086301 211.909074 208.341152 212.992193 208.341152 C 214.0116 208.341152 214.967293 208.150014 215.859273 207.767736 C 217.898086 206.939469 219.427195 205.282934 220.128037 203.244121 L 236.183686 156.415146 L 300.788557 191.393523 L 144.309697 256.253246 L 165.207525 185.786789 Z M 303.974201 176.038717 L 241.089578 142.016033 L 263.197951 77.602301 Z M 90.408592 149.21559 L 151.509254 179.096936 L 131.184842 247.652006 Z M 90.408592 149.21559 " transform="matrix(0.0613102,0,0,0.0613102,0,0)"/>
<path style="fill-rule:nonzero;fill:rgb(100%,100%,100%);fill-opacity:1;stroke-width:1;stroke-linecap:butt;stroke-linejoin:miter;stroke:rgb(100%,100%,100%);stroke-opacity:1;stroke-miterlimit:4;" d="M 7.518121 166.609209 L 51.034025 166.609209 C 55.175363 166.609209 58.552146 163.232426 58.552146 159.091088 C 58.552146 154.94975 55.175363 151.63668 51.034025 151.63668 L 7.518121 151.63668 C 3.376783 151.63668 0 154.94975 0 159.091088 C 0 163.232426 3.376783 166.609209 7.518121 166.609209 Z M 7.518121 166.609209 " transform="matrix(0.0613102,0,0,0.0613102,0,0)"/>
<path style="fill-rule:nonzero;fill:rgb(100%,100%,100%);fill-opacity:1;stroke-width:1;stroke-linecap:butt;stroke-linejoin:miter;stroke:rgb(100%,100%,100%);stroke-opacity:1;stroke-miterlimit:4;" d="M 82.062203 236.884527 L 7.518121 236.884527 C 3.376783 236.884527 0 240.261311 0 244.402648 C 0 248.543986 3.376783 251.92077 7.518121 251.92077 L 82.062203 251.92077 C 86.203541 251.92077 89.580324 248.543986 89.580324 244.402648 C 89.580324 240.261311 86.203541 236.884527 82.062203 236.884527 Z M 82.062203 236.884527 " transform="matrix(0.0613102,0,0,0.0613102,0,0)"/>
<path style="fill-rule:nonzero;fill:rgb(100%,100%,100%);fill-opacity:1;stroke-width:1;stroke-linecap:butt;stroke-linejoin:miter;stroke:rgb(100%,100%,100%);stroke-opacity:1;stroke-miterlimit:4;" d="M 7.518121 209.233133 L 66.579971 209.233133 C 70.721309 209.233133 74.034379 205.920063 74.034379 201.778725 C 74.034379 197.637387 70.721309 194.260604 66.579971 194.260604 L 7.518121 194.260604 C 3.376783 194.260604 0 197.637387 0 201.778725 C 0 205.920063 3.376783 209.233133 7.518121 209.233133 Z M 7.518121 209.233133 " transform="matrix(0.0613102,0,0,0.0613102,0,0)"/>
</g>
</svg>
