<?xml version="1.0" encoding="UTF-8"?>
<svg xmlns="http://www.w3.org/2000/svg" xmlns:xlink="http://www.w3.org/1999/xlink" width="20px" height="20px" viewBox="0 0 20 20" version="1.1">
<g id="surface1">
<path style="fill-rule:nonzero;fill:rgb(100%,100%,100%);fill-opacity:1;stroke-width:1;stroke-linecap:butt;stroke-linejoin:miter;stroke:rgb(100%,100%,100%);stroke-opacity:1;stroke-miterlimit:4;" d="M 426.596682 87.953124 C 384.398408 45.658726 328.262206 22.396806 268.473306 22.396806 C 262.705888 22.396806 257.99583 27.106864 257.99583 32.874282 L 257.99583 89.394979 C 257.99583 95.25852 262.705888 99.968578 268.473306 99.968578 C 349.024911 99.968578 414.581228 165.524896 414.581228 246.0765 C 414.581228 326.628104 349.024911 392.184422 268.473306 392.184422 C 194.554233 392.184422 132.938984 337.201704 123.518868 265.108979 L 160.430343 265.108979 C 160.430343 265.108979 160.526467 265.108979 160.526467 265.108979 C 166.293885 265.108979 171.003943 260.398921 171.003943 254.631503 C 171.003943 251.747794 169.850459 249.152456 167.927987 247.229984 L 92.567058 162.833434 C 90.644586 160.62259 87.760877 159.372983 84.781044 159.372983 C 84.781044 159.372983 84.684921 159.372983 84.684921 159.372983 C 81.705088 159.372983 78.821379 160.62259 76.898906 162.929558 L 2.595338 247.710602 C -0.0961236 250.786558 -0.768989 255.208245 0.961236 258.957067 C 2.595338 262.705888 6.34416 265.108979 10.477476 265.108979 L 45.562602 265.108979 C 50.176536 319.130461 74.015197 369.306997 113.329763 407.179709 C 155.143543 447.551634 210.318509 469.756194 268.473306 469.756194 C 328.262206 469.756194 384.398408 446.494274 426.596682 404.199876 C 468.891081 362.001601 492.153 305.8654 492.153 246.0765 C 492.153 186.2876 468.891081 130.151399 426.596682 87.953124 Z M 268.473306 448.801242 C 159.27686 448.801242 70.266376 363.347332 65.940812 254.247009 C 65.748565 248.575714 61.13463 244.154027 55.463336 244.154027 L 33.643271 244.154027 L 84.877168 185.710859 L 136.976177 244.154027 L 112.080156 244.154027 C 109.196447 244.154027 106.408862 245.307511 104.486389 247.422231 C 102.467793 249.536951 101.410433 252.324536 101.60268 255.208245 C 106.312738 343.834235 179.65507 413.235497 268.473306 413.235497 C 360.65587 413.235497 435.632304 338.259064 435.632304 246.0765 C 435.632304 157.450511 366.231041 84.684921 278.950782 79.301997 L 278.950782 43.640129 C 385.840262 49.119176 471.198048 137.841289 471.198048 246.0765 C 471.198048 357.868285 380.265091 448.801242 268.473306 448.801242 Z M 268.473306 448.801242 " transform="matrix(0.0406378,0,0,0.0406378,0,0)"/>
<path style="fill-rule:nonzero;fill:rgb(100%,100%,100%);fill-opacity:1;stroke-width:1;stroke-linecap:butt;stroke-linejoin:miter;stroke:rgb(100%,100%,100%);stroke-opacity:1;stroke-miterlimit:4;" d="M 255.400492 255.688863 L 255.400492 335.086984 L 230.119977 335.086984 C 224.256435 335.086984 219.546377 339.797042 219.546377 345.56446 C 219.546377 351.331878 224.256435 356.041936 230.119977 356.041936 L 255.400492 356.041936 L 255.400492 369.11475 C 255.400492 374.882168 260.11055 379.592226 265.877968 379.592226 C 271.74151 379.592226 276.451568 374.882168 276.451568 369.11475 L 276.451568 355.0807 C 304.615792 350.082271 326.147486 325.474621 326.147486 295.772418 C 326.147486 266.166339 304.615792 241.462566 276.451568 236.56026 L 276.451568 157.066016 L 298.560004 157.066016 C 304.327421 157.066016 309.037479 152.355958 309.037479 146.58854 C 309.037479 140.821122 304.327421 136.111064 298.560004 136.111064 L 276.451568 136.111064 L 276.451568 123.03825 C 276.451568 117.270832 271.74151 112.560774 265.877968 112.560774 C 260.11055 112.560774 255.400492 117.270832 255.400492 123.03825 L 255.400492 137.0723 C 227.140144 142.070729 205.704574 166.678379 205.704574 196.380582 C 205.704574 225.986661 227.140144 250.690434 255.400492 255.688863 Z M 305.096411 295.772418 C 305.096411 313.843661 292.984833 329.031195 276.451568 333.645129 L 276.451568 257.99583 C 292.984833 262.609765 305.096411 277.797299 305.096411 295.772418 Z M 255.400492 158.507871 L 255.400492 234.15717 C 238.867228 229.543235 226.659526 214.355701 226.659526 196.380582 C 226.659526 178.309339 238.867228 163.121805 255.400492 158.507871 Z M 255.400492 158.507871 " transform="matrix(0.0406378,0,0,0.0406378,0,0)"/>
</g>
</svg>
