<?xml version="1.0" encoding="UTF-8"?>
<svg xmlns="http://www.w3.org/2000/svg" xmlns:xlink="http://www.w3.org/1999/xlink" width="20px" height="20px" viewBox="0 0 20 20" version="1.1">
<g id="surface1">
<path style="fill-rule:evenodd;fill:rgb(100%,100%,100%);fill-opacity:1;stroke-width:1;stroke-linecap:butt;stroke-linejoin:miter;stroke:rgb(100%,100%,100%);stroke-opacity:1;stroke-miterlimit:4;" d="M 9.75 6 C 9.75 5.170312 10.420312 4.5 11.25 4.5 L 12.998437 4.5 C 13.607812 4.5 14.25 5.085937 14.25 6 L 15.75 6 C 15.75 4.429687 14.601562 3 12.998437 3 L 11.25 3 C 9.595312 3 8.25 4.345312 8.25 6 L 3.75 6 L 3 6.75 L 3 19.5 L 3.75 20.25 L 20.25 20.25 L 21 19.5 L 21 6.75 L 20.25 6 Z M 4.5 15.75 L 4.5 7.5 L 6 7.5 C 6 8.329687 5.329687 9 4.5 9 L 4.5 10.5 C 6.154687 10.5 7.5 9.154687 7.5 7.5 L 16.5 7.5 C 16.5 9.154687 17.845312 10.5 19.5 10.5 L 19.5 15.75 C 17.845312 15.75 16.5 17.095312 16.5 18.75 L 7.5 18.75 C 7.5 17.095312 6.154687 15.75 4.5 15.75 Z M 4.5 17.25 L 4.5 18.75 L 6 18.75 C 6 17.920312 5.329687 17.25 4.5 17.25 Z M 19.5 9 C 18.670312 9 18 8.329687 18 7.5 L 19.5 7.5 Z M 18 18.75 L 19.5 18.75 L 19.5 17.25 C 18.670312 17.25 18 17.920312 18 18.75 Z M 12.384375 12.098437 L 14.826562 11.442187 L 14.175 9 L 11.728125 9.65625 Z M 11.25 14.25 C 11.25 15.079687 10.579687 15.75 9.75 15.75 C 8.920312 15.75 8.25 15.079687 8.25 14.25 C 8.25 13.420312 8.920312 12.75 9.75 12.75 C 10.579687 12.75 11.25 13.420312 11.25 14.25 Z M 14.367187 17.38125 L 16.495312 14.610937 L 13.035937 14.15625 Z M 14.367187 17.38125 " transform="matrix(0.833333,0,0,0.833333,0,0)"/>
</g>
</svg>
